<svg xmlns="http://www.w3.org/2000/svg" width="1200" height="750" viewBox="0 0 1200 750" role="img" aria-labelledby="title desc">
  <title id="title">Codex terminal skills preview</title>
  <desc id="desc">Dark terminal preview card for the Codex terminal and skills guide.</desc>
  <defs>
    <linearGradient id="bg" x1="0" x2="1" y1="0" y2="1">
      <stop offset="0" stop-color="#080b16"/>
      <stop offset=".55" stop-color="#101828"/>
      <stop offset="1" stop-color="#12162a"/>
    </linearGradient>
    <pattern id="grid" width="42" height="42" patternUnits="userSpaceOnUse">
      <path d="M42 0H0v42" fill="none" stroke="#ffffff" stroke-opacity=".08" stroke-width="2"/>
    </pattern>
  </defs>
  <rect width="1200" height="750" fill="url(#bg)"/>
  <rect width="1200" height="750" fill="url(#grid)"/>
  <rect x="88" y="82" width="1024" height="586" rx="26" fill="#11182c" stroke="#62e3ff" stroke-opacity=".45" stroke-width="4"/>
  <rect x="128" y="124" width="944" height="82" rx="18" fill="#ffffff" opacity=".08" stroke="#ffffff" stroke-opacity=".16"/>
  <circle cx="166" cy="165" r="12" fill="#ff8fa3"/>
  <circle cx="202" cy="165" r="12" fill="#ffd27a"/>
  <circle cx="238" cy="165" r="12" fill="#85f5b9"/>
  <text x="288" y="174" font-family="Monaco,Menlo,monospace" font-size="26" fill="#dbe4ff">codex-terminal-skills</text>
  <text x="150" y="305" font-family="Inter,Avenir Next,sans-serif" font-size="78" font-weight="800" fill="#f5f7fb">Codex</text>
  <text x="150" y="392" font-family="Inter,Avenir Next,sans-serif" font-size="78" font-weight="800" fill="#f5f7fb">终端学习路线</text>
  <text x="154" y="448" font-family="Monaco,Menlo,monospace" font-size="26" fill="#b7c0d8">CLI · OMX · Skills · Review</text>
  <rect x="710" y="260" width="300" height="64" rx="14" fill="#62e3ff" opacity=".12" stroke="#62e3ff" stroke-opacity=".55"/>
  <text x="742" y="301" font-family="Monaco,Menlo,monospace" font-size="25" fill="#85f5b9">codex exec</text>
  <rect x="710" y="350" width="300" height="64" rx="14" fill="#c8a5ff" opacity=".12" stroke="#c8a5ff" stroke-opacity=".55"/>
  <text x="742" y="391" font-family="Monaco,Menlo,monospace" font-size="25" fill="#ffd27a">$plan</text>
  <rect x="710" y="440" width="300" height="64" rx="14" fill="#85f5b9" opacity=".12" stroke="#85f5b9" stroke-opacity=".55"/>
  <text x="742" y="481" font-family="Monaco,Menlo,monospace" font-size="25" fill="#62e3ff">$code-review</text>
</svg>
